<?xml version="1.0" encoding="utf-8"?>
<!-- Generator: Adobe Illustrator 18.0.0, SVG Export Plug-In . SVG Version: 6.00 Build 0)  -->
<!DOCTYPE svg PUBLIC "-//W3C//DTD SVG 1.0//EN" "http://www.w3.org/TR/2001/REC-SVG-20010904/DTD/svg10.dtd">
<svg version="1.0" xmlns="http://www.w3.org/2000/svg" xmlns:xlink="http://www.w3.org/1999/xlink" x="0px" y="0px"
	 viewBox="0 0 40 18.5" enable-background="new 0 0 40 18.5" xml:space="preserve">
<g id="Layer_1" display="none">
	<g id="Layer_5" display="inline">
		<g>
			<g>
				<path fill="#FFFFFF" d="M68.202,22.02h1.376c-0.12-2.526-0.256-4.943-0.408-7.256c-0.153-2.312-0.342-4.522-0.567-6.634h-1.136
					c-0.4,0.669-0.826,1.44-1.278,2.315s-0.902,1.784-1.348,2.726c-0.445,0.942-0.879,1.871-1.298,2.786
					c-0.42,0.915-0.788,1.741-1.108,2.474c-0.32-0.735-0.69-1.559-1.108-2.474c-0.42-0.915-0.852-1.844-1.298-2.786
					c-0.447-0.942-0.895-1.851-1.348-2.726c-0.452-0.874-0.879-1.647-1.278-2.315h-1.195c-0.226,2.112-0.415,4.322-0.567,6.634
					c-0.153,2.312-0.29,4.73-0.408,7.256h1.335c0.079-2.151,0.17-4.206,0.269-6.163c0.1-1.957,0.236-3.771,0.408-5.441
					c0.107,0.187,0.273,0.508,0.5,0.962c0.227,0.455,0.487,0.981,0.78,1.583c0.293,0.601,0.6,1.247,0.921,1.935
					c0.32,0.687,0.634,1.356,0.941,2.005c0.307,0.648,0.584,1.247,0.83,1.794c0.247,0.548,0.437,0.99,0.571,1.322h1.215
					c0.133-0.334,0.322-0.774,0.569-1.322c0.245-0.548,0.521-1.145,0.827-1.794c0.306-0.649,0.617-1.316,0.936-2.005
					c0.319-0.688,0.624-1.333,0.916-1.935c0.292-0.601,0.551-1.128,0.777-1.583c0.226-0.455,0.392-0.774,0.498-0.962
					c0.172,1.67,0.309,3.484,0.408,5.441C68.032,17.814,68.122,19.869,68.202,22.02z M78.418,20.516
					c-0.186,0.094-0.485,0.207-0.897,0.341s-0.97,0.2-1.674,0.2c-1.276,0-2.206-0.341-2.79-1.022
					c-0.585-0.681-0.897-1.657-0.937-2.927h7.234c0.013-0.093,0.023-0.194,0.03-0.3c0.007-0.107,0.01-0.214,0.01-0.321
					c0-1.723-0.376-2.999-1.126-3.828c-0.751-0.828-1.757-1.242-3.019-1.242c-0.571,0-1.126,0.109-1.664,0.33
					c-0.538,0.221-1.016,0.559-1.435,1.013c-0.419,0.455-0.757,1.02-1.016,1.694c-0.259,0.676-0.388,1.466-0.388,2.374
					c0,0.788,0.093,1.513,0.279,2.174s0.485,1.233,0.897,1.713c0.412,0.481,0.936,0.856,1.574,1.122
					c0.637,0.267,1.408,0.401,2.312,0.401c0.691,0,1.292-0.073,1.803-0.221c0.512-0.147,0.86-0.273,1.047-0.381L78.418,20.516z
					 M72.43,14.703c0.152-0.414,0.365-0.778,0.637-1.092c0.272-0.313,0.591-0.564,0.957-0.751c0.365-0.187,0.78-0.28,1.245-0.28
					c0.877,0,1.555,0.3,2.033,0.902c0.478,0.601,0.73,1.443,0.757,2.526H72.16C72.188,15.553,72.277,15.119,72.43,14.703z
					 M81.71,20.817c0.445,0.467,0.977,0.826,1.594,1.072c0.617,0.247,1.306,0.371,2.063,0.371c0.917,0,1.674-0.06,2.272-0.18
					c0.598-0.121,1.09-0.247,1.474-0.381V6.467l-1.295,0.241v5.571c-0.226-0.173-0.588-0.357-1.086-0.551
					c-0.498-0.193-1.086-0.291-1.764-0.291c-0.744,0-1.405,0.134-1.983,0.401c-0.578,0.267-1.066,0.641-1.465,1.122
					c-0.399,0.481-0.701,1.052-0.907,1.714c-0.206,0.662-0.309,1.386-0.309,2.174c0,0.842,0.123,1.597,0.369,2.265
					C80.919,19.781,81.265,20.349,81.71,20.817z M81.859,15.216c0.12-0.515,0.312-0.963,0.578-1.343
					c0.266-0.38,0.614-0.684,1.047-0.912c0.431-0.227,0.966-0.341,1.605-0.341c0.306,0,0.598,0.03,0.877,0.091
					c0.279,0.06,0.538,0.137,0.777,0.23c0.24,0.094,0.449,0.194,0.628,0.301s0.329,0.207,0.448,0.301v7.255
					c-0.199,0.067-0.495,0.13-0.887,0.191c-0.392,0.06-0.907,0.09-1.544,0.09c-1.116,0-2.013-0.364-2.691-1.092
					c-0.678-0.728-1.016-1.774-1.016-3.136C81.68,16.274,81.739,15.73,81.859,15.216z M91.544,22.02h1.295V11.658h-1.295V22.02z
					 M92.182,9.534c0.266,0,0.492-0.091,0.678-0.271c0.186-0.18,0.279-0.424,0.279-0.731c0-0.307-0.093-0.551-0.279-0.731
					c-0.186-0.18-0.412-0.271-0.678-0.271c-0.266,0-0.492,0.091-0.678,0.271c-0.186,0.18-0.279,0.424-0.279,0.731
					c0,0.308,0.093,0.551,0.279,0.731C91.69,9.443,91.916,9.534,92.182,9.534z M101.528,21.909c0.252-0.047,0.445-0.09,0.578-0.13
					v-6.534c0-0.548-0.066-1.056-0.199-1.523c-0.133-0.467-0.345-0.872-0.637-1.213c-0.292-0.341-0.674-0.607-1.147-0.801
					c-0.472-0.193-1.047-0.291-1.723-0.291c-0.664,0-1.233,0.047-1.703,0.14c-0.472,0.094-0.821,0.194-1.047,0.301l0.179,1.143
					c0.172-0.066,0.445-0.153,0.817-0.26s0.937-0.16,1.694-0.16c0.531,0,0.959,0.084,1.285,0.25
					c0.326,0.167,0.578,0.387,0.757,0.662c0.179,0.274,0.295,0.581,0.349,0.922c0.052,0.341,0.079,0.691,0.079,1.052v0.641
					c-0.053-0.027-0.149-0.057-0.288-0.091c-0.14-0.033-0.306-0.066-0.498-0.1c-0.193-0.034-0.392-0.06-0.598-0.08
					c-0.206-0.02-0.402-0.03-0.588-0.03c-0.624,0-1.202,0.06-1.734,0.18s-0.99,0.31-1.376,0.571
					c-0.385,0.26-0.685,0.591-0.897,0.992c-0.213,0.401-0.319,0.881-0.319,1.443c0,0.588,0.097,1.085,0.29,1.493
					c0.193,0.408,0.458,0.742,0.798,1.002c0.338,0.26,0.737,0.451,1.195,0.571c0.458,0.121,0.959,0.18,1.505,0.18
					c0.426,0,0.84-0.017,1.245-0.05c0.405-0.034,0.773-0.077,1.106-0.13C100.983,22.007,101.276,21.957,101.528,21.909z
					 M98.519,21.078c-0.412,0-0.78-0.036-1.106-0.109c-0.326-0.073-0.605-0.191-0.837-0.351c-0.233-0.16-0.412-0.373-0.538-0.641
					c-0.127-0.267-0.19-0.594-0.19-0.983c0-0.441,0.093-0.795,0.279-1.062c0.186-0.267,0.426-0.478,0.717-0.631
					c0.292-0.153,0.61-0.255,0.957-0.3c0.345-0.047,0.678-0.071,0.997-0.071c0.558,0,0.997,0.037,1.315,0.11
					c0.319,0.073,0.551,0.143,0.698,0.21v3.648c-0.266,0.053-0.588,0.098-0.966,0.13C99.466,21.062,99.024,21.078,98.519,21.078z
					 M117.451,20.336c-0.306,0.174-0.755,0.344-1.345,0.51c-0.592,0.167-1.326,0.251-2.202,0.251c-0.798,0-1.505-0.141-2.122-0.421
					c-0.617-0.28-1.14-0.681-1.564-1.202c-0.426-0.521-0.748-1.152-0.966-1.894c-0.219-0.742-0.329-1.573-0.329-2.495
					c0-0.895,0.109-1.71,0.329-2.445c0.219-0.735,0.548-1.37,0.986-1.903c0.438-0.534,0.979-0.949,1.624-1.243
					c0.644-0.294,1.398-0.441,2.262-0.441c0.757,0,1.392,0.098,1.903,0.291c0.512,0.194,0.934,0.391,1.265,0.591l0.438-1.183
					c-0.12-0.08-0.293-0.171-0.519-0.271c-0.226-0.1-0.499-0.2-0.817-0.301c-0.319-0.1-0.691-0.184-1.116-0.25
					c-0.426-0.066-0.897-0.1-1.415-0.1c-0.837,0-1.641,0.157-2.412,0.471c-0.771,0.314-1.448,0.778-2.033,1.393
					s-1.053,1.373-1.405,2.274c-0.352,0.902-0.528,1.935-0.528,3.097c0,1.163,0.163,2.194,0.488,3.097
					c0.326,0.902,0.771,1.66,1.335,2.274c0.565,0.615,1.229,1.083,1.993,1.402c0.764,0.321,1.591,0.481,2.481,0.481
					c0.558,0,1.063-0.03,1.514-0.091c0.451-0.06,0.85-0.137,1.195-0.23s0.631-0.184,0.857-0.271c0.226-0.086,0.385-0.164,0.478-0.23
					L117.451,20.336z M125.541,20.757c-0.12,0.053-0.406,0.114-0.857,0.18c-0.452,0.067-0.984,0.1-1.594,0.1
					c-0.545,0-1.006-0.07-1.385-0.21c-0.379-0.141-0.687-0.367-0.927-0.681c-0.24-0.314-0.412-0.724-0.519-1.233
					c-0.106-0.508-0.159-1.129-0.159-1.864v-5.392h-1.295v5.812c0,0.708,0.07,1.357,0.209,1.944c0.14,0.588,0.369,1.09,0.687,1.503
					c0.319,0.414,0.737,0.735,1.256,0.963c0.519,0.228,1.163,0.341,1.933,0.341c0.943,0,1.741-0.067,2.391-0.2
					c0.651-0.134,1.169-0.253,1.555-0.36V11.658h-1.295v9.099H125.541z M136.495,12.96c-0.399-0.48-0.887-0.855-1.465-1.122
					c-0.578-0.267-1.24-0.401-1.983-0.401c-0.678,0-1.265,0.098-1.764,0.291c-0.499,0.194-0.86,0.378-1.086,0.551V6.467
					l-1.295,0.241v14.991c0.385,0.134,0.877,0.26,1.474,0.381s1.355,0.18,2.272,0.18c0.757,0,1.444-0.124,2.063-0.371
					c0.617-0.248,1.149-0.605,1.594-1.072c0.445-0.467,0.791-1.035,1.036-1.703s0.369-1.423,0.369-2.265
					c0-0.788-0.103-1.513-0.309-2.174C137.196,14.013,136.894,13.442,136.495,12.96z M135.319,19.985
					c-0.678,0.729-1.574,1.092-2.691,1.092c-0.637,0-1.152-0.03-1.544-0.09c-0.392-0.06-0.687-0.123-0.887-0.191v-7.255
					c0.12-0.094,0.269-0.194,0.449-0.301c0.179-0.107,0.388-0.207,0.628-0.301c0.24-0.093,0.498-0.17,0.777-0.23
					c0.279-0.06,0.571-0.091,0.877-0.091c0.637,0,1.172,0.114,1.605,0.341c0.431,0.228,0.78,0.531,1.047,0.912
					c0.265,0.381,0.458,0.829,0.578,1.343c0.12,0.515,0.179,1.059,0.179,1.634C136.335,18.212,135.997,19.257,135.319,19.985z
					 M146.43,12.659c-0.751-0.828-1.757-1.242-3.019-1.242c-0.571,0-1.126,0.109-1.664,0.33c-0.538,0.221-1.016,0.559-1.435,1.013
					c-0.419,0.455-0.757,1.02-1.016,1.694c-0.259,0.676-0.388,1.466-0.388,2.374c0,0.788,0.093,1.513,0.279,2.174
					s0.485,1.233,0.897,1.713c0.412,0.481,0.937,0.856,1.574,1.122c0.637,0.267,1.408,0.401,2.312,0.401
					c0.691,0,1.292-0.073,1.803-0.221c0.512-0.147,0.86-0.273,1.047-0.381l-0.24-1.122c-0.186,0.094-0.485,0.207-0.897,0.341
					c-0.412,0.134-0.97,0.2-1.674,0.2c-1.276,0-2.206-0.341-2.79-1.022c-0.585-0.681-0.897-1.657-0.937-2.927h7.234
					c0.013-0.093,0.023-0.194,0.03-0.3c0.007-0.107,0.01-0.214,0.01-0.321C147.555,14.764,147.18,13.488,146.43,12.659z
					 M140.322,16.007c0.027-0.455,0.116-0.888,0.269-1.303c0.152-0.414,0.365-0.778,0.638-1.092
					c0.272-0.313,0.591-0.564,0.957-0.751c0.365-0.187,0.78-0.28,1.245-0.28c0.877,0,1.555,0.3,2.033,0.902
					c0.478,0.601,0.73,1.443,0.757,2.526h-5.899V16.007z M64.774,40.002c-0.414-0.734-0.943-1.594-1.587-2.583
					c-0.645-0.987-1.341-2-2.085-3.035c-0.744-1.036-1.503-2.052-2.279-3.049c-0.774-0.997-1.501-1.877-2.18-2.637h-1.076v13.888
					h1.335V30.888c0.379,0.455,0.812,0.995,1.3,1.622c0.488,0.626,0.987,1.297,1.498,2.013c0.51,0.715,1.022,1.452,1.537,2.209
					c0.514,0.757,1.008,1.491,1.481,2.2c0.473,0.709,0.903,1.38,1.29,2.01c0.387,0.631,0.708,1.179,0.965,1.644h1.136V28.699h-1.335
					V40.002z M72.141,31.985c-0.571,0-1.126,0.11-1.664,0.33c-0.538,0.221-1.016,0.558-1.435,1.013
					c-0.419,0.455-0.757,1.019-1.016,1.693c-0.259,0.674-0.388,1.466-0.388,2.374c0,0.788,0.093,1.513,0.279,2.174
					c0.186,0.662,0.485,1.233,0.897,1.713c0.412,0.481,0.937,0.856,1.574,1.122c0.637,0.267,1.408,0.401,2.312,0.401
					c0.691,0,1.292-0.073,1.803-0.221c0.512-0.147,0.86-0.273,1.047-0.38l-0.24-1.122c-0.186,0.094-0.485,0.207-0.897,0.341
					s-0.97,0.201-1.674,0.201c-1.276,0-2.206-0.341-2.79-1.022c-0.585-0.681-0.897-1.657-0.936-2.926h7.234
					c0.013-0.093,0.023-0.193,0.03-0.3c0.007-0.107,0.01-0.214,0.01-0.321c0-1.723-0.376-3-1.126-3.828
					C74.41,32.4,73.403,31.985,72.141,31.985z M69.052,36.576c0.027-0.455,0.116-0.888,0.269-1.303
					c0.152-0.414,0.365-0.778,0.638-1.092c0.272-0.314,0.591-0.564,0.957-0.751c0.365-0.187,0.78-0.28,1.245-0.28
					c0.877,0,1.555,0.3,2.033,0.902c0.478,0.601,0.73,1.443,0.757,2.526h-5.899V36.576z M82.477,41.435
					c-0.333,0.127-0.771,0.191-1.315,0.191c-0.319,0-0.612-0.034-0.877-0.1c-0.266-0.067-0.492-0.201-0.678-0.401
					s-0.329-0.484-0.428-0.852c-0.1-0.367-0.15-0.845-0.15-1.433v-5.512h4.106v-1.102H79.03v-3.287l-1.295,0.241v9.541
					c0,0.695,0.052,1.297,0.159,1.803c0.106,0.508,0.288,0.931,0.548,1.272c0.259,0.341,0.605,0.595,1.036,0.762
					s0.966,0.25,1.605,0.25c0.544,0,1.049-0.077,1.514-0.23s0.791-0.291,0.977-0.412l-0.319-1.083
					C83.068,41.192,82.809,41.308,82.477,41.435z M97.456,34.524c-0.22,0.823-0.456,1.638-0.709,2.445
					c-0.253,0.808-0.507,1.576-0.76,2.302c-0.253,0.728-0.493,1.344-0.72,1.852c-0.266-0.669-0.53-1.384-0.79-2.147
					c-0.259-0.762-0.506-1.534-0.736-2.315c-0.231-0.781-0.443-1.549-0.635-2.305c-0.192-0.755-0.348-1.465-0.466-2.134h-1.116
					c-0.157,0.667-0.336,1.378-0.534,2.134c-0.198,0.756-0.409,1.52-0.634,2.295c-0.224,0.776-0.465,1.544-0.72,2.308
					c-0.256,0.763-0.51,1.477-0.765,2.142c-0.227-0.508-0.47-1.123-0.729-1.844c-0.259-0.722-0.516-1.487-0.77-2.295
					c-0.253-0.808-0.491-1.623-0.71-2.444c-0.22-0.821-0.403-1.586-0.55-2.294h-1.376c0.477,2.031,0.997,3.89,1.562,5.573
					c0.564,1.684,1.187,3.28,1.869,4.788h1.245c0.199-0.465,0.407-0.987,0.627-1.569c0.22-0.581,0.447-1.202,0.679-1.864
					c0.233-0.662,0.458-1.356,0.677-2.086c0.219-0.729,0.427-1.474,0.626-2.237c0.199,0.76,0.408,1.505,0.627,2.233
					c0.219,0.727,0.445,1.421,0.68,2.081c0.234,0.66,0.462,1.281,0.683,1.863c0.221,0.58,0.431,1.107,0.634,1.578h1.201
					c0.68-1.508,1.303-3.103,1.871-4.785c0.566-1.683,1.09-3.542,1.57-5.577h-1.277C97.86,32.935,97.676,33.701,97.456,34.524z
					 M107.902,33.479c-0.419-0.474-0.914-0.842-1.485-1.102c-0.571-0.26-1.202-0.391-1.893-0.391c-0.691,0-1.322,0.13-1.893,0.391
					c-0.571,0.26-1.066,0.628-1.485,1.102c-0.419,0.474-0.744,1.045-0.977,1.713c-0.233,0.669-0.349,1.41-0.349,2.224
					c0,0.815,0.116,1.557,0.349,2.224c0.233,0.669,0.558,1.236,0.977,1.703c0.419,0.467,0.913,0.831,1.485,1.092
					c0.571,0.26,1.202,0.391,1.893,0.391c0.691,0,1.322-0.13,1.893-0.391c0.571-0.26,1.066-0.624,1.485-1.092
					c0.419-0.467,0.744-1.035,0.977-1.703c0.233-0.667,0.349-1.409,0.349-2.224c0-0.815-0.116-1.556-0.349-2.224
					C108.645,34.524,108.32,33.953,107.902,33.479z M106.955,40.503c-0.598,0.762-1.408,1.142-2.431,1.142
					c-1.023,0-1.834-0.38-2.431-1.142c-0.598-0.762-0.897-1.791-0.897-3.086c0-1.295,0.299-2.328,0.897-3.097
					c0.598-0.769,1.408-1.152,2.431-1.152c1.023,0,1.834,0.385,2.431,1.152c0.598,0.769,0.897,1.801,0.897,3.097
					C107.852,38.713,107.553,39.742,106.955,40.503z M114.182,32.026c-0.837,0-1.548,0.077-2.133,0.23
					c-0.585,0.153-1.043,0.305-1.374,0.451v9.88h1.295v-9.079c0.106-0.052,0.329-0.12,0.667-0.2c0.338-0.08,0.787-0.12,1.345-0.12
					c0.531,0,0.959,0.03,1.285,0.091c0.326,0.06,0.541,0.117,0.648,0.17l0.259-1.122c-0.147-0.066-0.409-0.134-0.787-0.2
					C115.009,32.059,114.606,32.026,114.182,32.026z M122.924,39.514c-0.465-0.508-0.937-0.98-1.415-1.416
					c-0.478-0.435-0.952-0.819-1.422-1.152c0.394-0.372,0.799-0.763,1.214-1.174c0.415-0.412,0.836-0.829,1.264-1.253
					c0.428-0.424,0.84-0.833,1.235-1.223c0.394-0.391,0.745-0.748,1.05-1.069h-1.583c-0.258,0.295-0.579,0.64-0.959,1.03
					c-0.381,0.392-0.786,0.795-1.215,1.213c-0.429,0.417-0.851,0.831-1.264,1.244c-0.414,0.413-0.759,0.738-1.036,0.977v-9.655
					l-1.295,0.241v15.312h1.295v-5.034c0.349,0.185,0.75,0.462,1.202,0.83c0.452,0.369,0.905,0.777,1.357,1.224
					c0.452,0.448,0.884,0.924,1.297,1.43c0.412,0.506,0.773,1.023,1.085,1.549h1.557c-0.29-0.471-0.64-0.973-1.051-1.509
					C123.827,40.543,123.389,40.022,122.924,39.514z M23.504,15.185c1.121-0.651,2.257-0.666,3.408-0.055
					c2.559,1.359,5.127,2.706,7.686,4.067c1.19,0.633,2.358,0.633,3.533-0.033c2.727-1.543,5.459-3.077,8.181-4.628
					c0.348-0.198,0.676-0.452,0.962-0.734c0.407-0.401,0.387-0.797-0.065-1.142c-0.524-0.4-1.069-0.783-1.64-1.112
					C39.532,8.066,33.494,4.583,27.441,1.126c-1.459-0.834-2.997-0.833-4.457-0.002C17.202,4.412,11.43,7.715,5.672,11.044
					c-1.407,0.814-2.188,2.121-2.202,3.753C3.41,21.422,3.387,28.047,3.375,34.671c-0.003,1.836,0.828,3.231,2.421,4.16
					c5.544,3.231,11.095,6.451,16.626,9.705c1.76,1.036,3.456,1.081,5.259,0.097c5.723-3.128,11.469-6.215,17.208-9.314
					c1.692-0.914,2.569-2.323,2.581-4.25c0.027-3.847,0.04-7.693,0.055-11.54c0.001-0.178-0.033-0.356-0.059-0.636
					c-0.551,0.322-1.002,0.593-1.46,0.851c-6.32,3.55-12.643,7.091-18.957,10.651c-1.271,0.717-2.486,0.721-3.747-0.014
					c-5.251-3.057-10.51-6.098-15.766-9.147c-0.178-0.103-0.347-0.223-0.57-0.367c0.169-0.126,0.276-0.222,0.397-0.292
					C12.741,21.442,18.122,18.312,23.504,15.185z"/>
			</g>
		</g>
		<path fill="#D62F27" d="M6.966,24.866c0.223,0.144,0.392,0.265,0.57,0.367c5.256,3.049,10.515,6.09,15.766,9.147
			c1.26,0.734,2.476,0.73,3.747,0.014c6.313-3.56,12.637-7.101,18.957-10.651c0.458-0.258,0.909-0.529,1.46-0.851
			c0.027,0.279,0.059,0.458,0.059,0.636c-0.015,3.847-0.028,7.693-0.055,11.54c-0.013,1.927-0.89,3.336-2.581,4.25
			c-5.74,3.099-11.485,6.186-17.208,9.314c-1.803,0.986-3.499,0.941-5.259-0.097c-5.53-3.255-11.081-6.473-16.626-9.705
			c-1.592-0.929-2.424-2.323-2.421-4.16c0.012-6.624,0.035-13.249,0.094-19.873c0.015-1.633,0.795-2.94,2.202-3.753
			c5.757-3.33,11.53-6.634,17.313-9.921c1.46-0.83,2.999-0.831,4.457,0.002C33.495,4.583,39.533,8.065,45.57,11.55
			c0.571,0.33,1.115,0.712,1.64,1.112c0.452,0.345,0.472,0.741,0.065,1.142c-0.285,0.281-0.614,0.535-0.96,0.734
			c-2.722,1.552-5.455,3.085-8.181,4.628c-1.174,0.665-2.344,0.665-3.533,0.033c-2.559-1.362-5.127-2.707-7.686-4.067
			c-1.151-0.612-2.287-0.597-3.408,0.055c-5.383,3.127-10.763,6.258-16.142,9.39C7.24,24.644,7.133,24.741,6.966,24.866z"/>
	</g>
</g>
<g id="Layer_5_1_">
	<g>
		<g>
			<g>
				<path fill-rule="evenodd" clip-rule="evenodd" fill="#FFFFFF" d="M35.686,9.367V8.375H3.22v0.992H35.686z M8.412,1.383H7.373
					L1.642,8.795l5.731,7.564l1.039,0L2.681,8.795L8.412,1.383z M31.681,1.383h-1.039l5.731,7.564l-5.731,7.412h1.039l5.731-7.412
					L31.681,1.383z"/>
			</g>
			<g>
				<path fill="none" stroke="#FFFFFF" stroke-width="1.1679" stroke-linejoin="round" stroke-miterlimit="10" d="M35.686,9.367
					V8.375H3.22v0.992H35.686z M8.412,1.383H7.373L1.642,8.795l5.731,7.564l1.039,0L2.681,8.795L8.412,1.383z M31.681,1.383h-1.039
					l5.731,7.564l-5.731,7.412h1.039l5.731-7.412L31.681,1.383z"/>
			</g>
		</g>
	</g>
</g>
<g id="Layer_3_1_" display="none">
	<g id="Layer_2">
		<path display="inline" fill="#D62F27" d="M48.52,27.419c0.223,0.137,0.392,0.252,0.57,0.35c5.252,2.903,10.509,5.8,15.758,8.71
			c1.26,0.699,2.474,0.697,3.745,0.013c6.309-3.391,12.63-6.763,18.947-10.144c0.458-0.245,0.909-0.505,1.46-0.81
			c0.027,0.266,0.059,0.436,0.059,0.606c-0.015,3.663-0.028,7.327-0.055,10.99c-0.013,1.835-0.89,3.178-2.58,4.048
			c-5.736,2.951-11.479,5.892-17.199,8.871c-1.802,0.938-3.497,0.895-5.256-0.092c-5.528-3.099-11.076-6.165-16.616-9.243
			c-1.592-0.885-2.422-2.213-2.42-3.962c0.012-6.309,0.035-12.619,0.094-18.927c0.015-1.555,0.794-2.799,2.201-3.574
			c5.755-3.171,11.524-6.317,17.303-9.449c1.459-0.791,2.997-0.792,4.455,0.002c6.05,3.293,12.085,6.61,18.12,9.929
			c0.57,0.314,1.114,0.678,1.638,1.059c0.452,0.329,0.472,0.705,0.065,1.087c-0.285,0.267-0.613,0.509-0.96,0.698
			c-2.721,1.478-5.452,2.938-8.178,4.408c-1.174,0.634-2.342,0.633-3.531,0.03c-2.558-1.297-5.123-2.578-7.683-3.873
			c-1.15-0.583-2.286-0.569-3.406,0.051c-5.38,2.978-10.757,5.959-16.134,8.942C48.795,27.207,48.689,27.299,48.52,27.419z"/>
	</g>
</g>
<g id="Layer_4_1_" display="none">
	<g id="Layer_4">
		<g display="inline">
			<g>
				<path fill="#7C7C7C" d="M44.745,3.973v2.326h23.256V3.973C68.001,3.973,44.745,3.973,44.745,3.973z M44.745,14.438h23.256
					v-2.326H44.745V14.438z M44.745,22.578h23.256v-2.326H44.745V22.578z"/>
			</g>
		</g>
	</g>
</g>
<g id="Layer_2_1_" display="none">
	<g id="Layer_3" display="inline">
		<path fill="#D62F27" d="M17.775,17.01l19.02,19.02l-1.902,1.902l-19.02-19.021L17.775,17.01z"/>
		<path fill="#D62F27" d="M15.873,36.03l19.02-19.02l1.902,1.902l-19.02,19.019L15.873,36.03z"/>
	</g>
</g>
</svg>
