<?xml version="1.0" encoding="UTF-8" standalone="no"?>
<svg width="39px" height="43px" viewBox="0 0 39 43" version="1.1" xmlns="http://www.w3.org/2000/svg" xmlns:xlink="http://www.w3.org/1999/xlink" xmlns:sketch="http://www.bohemiancoding.com/sketch/ns">
    <!-- Generator: Sketch 3.4.2 (15855) - http://www.bohemiancoding.com/sketch -->
    <title>Artboard</title>
    <desc>Created with Sketch.</desc>
    <defs></defs>
    <g id="Page-1" stroke="none" stroke-width="1" fill="none" fill-rule="evenodd" sketch:type="MSPage">
        <g id="Artboard" sketch:type="MSArtboardGroup" fill="#EC2426">
            <path d="M3.2242802,21.0692773 C3.42579771,21.1704503 3.52655647,21.2716233 3.72807398,21.3727963 C8.26221801,24.0032943 12.6956033,26.6337923 17.2297473,29.2642903 C18.3380936,29.8713283 19.3456812,29.8713283 20.4540275,29.2642903 C25.8950003,26.2291003 31.3359732,23.0927373 36.6761873,20.0575473 C37.0792223,19.8552013 37.4822573,19.6528553 37.8852923,19.3493363 L37.8852923,19.8552013 L37.8852923,29.7701553 C37.8852923,31.3889233 37.0792223,32.6029993 35.6685997,33.4123833 C30.7314206,36.0428813 25.7942416,38.7745524 20.8570625,41.4050504 C19.3456812,42.2144344 17.8342998,42.2144344 16.3229185,41.3038774 C11.587257,38.4710334 6.85159542,35.7393623 2.11593388,32.9065183 C0.705311293,32.0971343 0,30.8830583 0,29.3654633 C0.100758756,23.8009483 0.100758756,18.0340873 0.201517512,12.3683993 C0.201517512,10.9519773 0.806070049,9.83907428 2.11593388,9.13086327 C7.05311293,6.29801927 11.990292,3.36400226 16.927471,0.531158251 C18.1365761,-0.17705275 19.4464399,-0.17705275 20.7563038,0.531158251 C25.9957591,3.56634826 31.1344557,6.50036527 36.2731522,9.53555528 C36.776946,9.83907428 37.2807398,10.1425933 37.6837748,10.5472853 C38.0868098,10.8508043 38.0868098,11.1543233 37.7845336,11.5590153 C37.5830161,11.7613613 37.2807398,12.0648803 36.9784635,12.1660533 C34.6610121,13.4813023 32.242802,14.7965513 29.9253506,16.1118003 C28.917763,16.7188383 27.9101755,16.7188383 26.9025879,16.1118003 C24.6858953,14.8977243 22.4692026,13.7848213 20.3532687,12.5707453 C19.3456812,12.0648803 18.3380936,12.0648803 17.4312648,12.5707453 C12.796362,15.3024163 8.16145925,17.9329143 3.62731522,20.6645853 C3.42579771,20.8669313 3.32503895,20.9681043 3.2242802,21.0692773 L3.2242802,21.0692773 Z" id="XMLID_30_" sketch:type="MSShapeGroup"></path>
        </g>
    </g>
</svg>