<?xml version="1.0" encoding="utf-8"?>
<!-- Generator: Adobe Illustrator 18.0.0, SVG Export Plug-In . SVG Version: 6.00 Build 0)  -->
<!DOCTYPE svg PUBLIC "-//W3C//DTD SVG 1.0//EN" "http://www.w3.org/TR/2001/REC-SVG-20010904/DTD/svg10.dtd">
<svg version="1.0" id="Layer_1" xmlns="http://www.w3.org/2000/svg" xmlns:xlink="http://www.w3.org/1999/xlink" x="0px" y="0px"
	 viewBox="58.047 6.936 37.253 26.289" enable-background="new 58.047 6.936 37.253 26.289" xml:space="preserve">
<g>
	<polygon fill="#999999" points="82.382,20.08 74.715,28.053 66.714,28.053 71.743,22.842 58.047,22.842 58.047,20.08 
		58.047,17.318 71.743,17.318 66.714,12.108 74.715,12.108 	"/>
	<path fill="#999999" d="M74.733,28.104h-8.137l5.029-5.21H58v-5.627h13.625l-5.029-5.21l8.137,0l0.014,0.014l7.704,8.009
		l-0.036,0.037L74.733,28.104z M66.832,28.001h7.864l7.619-7.921l-7.619-7.92l-7.863,0l5.029,5.21H58.094v5.421h13.767
		L66.832,28.001z"/>
</g>
<g>
	<polygon fill="#999999" points="95.3,33.225 76.825,33.225 76.825,29.634 78.467,29.634 78.467,31.583 93.658,31.583 93.658,8.578 
		78.467,8.578 78.467,10.527 76.825,10.527 76.825,6.936 95.3,6.936 	"/>
</g>
</svg>
