<?xml version="1.0" encoding="UTF-8" standalone="no"?>
<svg width="80px" height="80px" viewBox="0 0 80 80" version="1.1" xmlns="http://www.w3.org/2000/svg" xmlns:xlink="http://www.w3.org/1999/xlink" xmlns:sketch="http://www.bohemiancoding.com/sketch/ns">
    <!-- Generator: Sketch 3.4.2 (15855) - http://www.bohemiancoding.com/sketch -->
    <title>logo_login</title>
    <desc>Created with Sketch.</desc>
    <defs></defs>
    <g id="Page-1" stroke="none" stroke-width="1" fill="none" fill-rule="evenodd" sketch:type="MSPage">
        <g id="logo_login" sketch:type="MSArtboardGroup" fill="#EC2426">
            <g id="logo_media_cube" sketch:type="MSLayerGroup" transform="translate(17.000000, 14.000000)">
                <path d="M4.20325203,26.1444444 C4.45022804,26.2689418 4.57371604,26.3934392 4.82069205,26.5179365 C10.3776522,29.7548677 15.8111243,32.9917989 21.3680845,36.2287302 C22.7264525,36.9757143 23.9613325,36.9757143 25.3197006,36.2287302 C31.9880527,32.4938095 38.6564049,28.6343915 45.2012691,24.8994709 C45.6952211,24.6504762 46.1891731,24.4014815 46.6831251,24.0279894 L46.6831251,24.6504762 L46.6831251,36.8512169 C46.6831251,38.8431746 45.6952211,40.3371429 43.9663891,41.3331217 C37.9154769,44.5700529 31.8645647,47.9314815 25.8136526,51.1684127 C23.9613325,52.1643915 22.1090125,52.1643915 20.2566924,51.0439153 C14.4527563,47.5579894 8.64882015,44.1965608 2.844884,40.7106349 C1.11605195,39.7146561 0.251635931,38.2206878 0.251635931,36.3532275 C0.375123934,29.505873 0.375123934,22.4095238 0.498611937,15.437672 C0.498611937,13.694709 1.23953996,12.3252381 2.844884,11.4537566 C8.89579615,7.96783069 14.9467083,4.35740741 20.9976205,0.871481481 C22.4794765,-2.77555756e-17 24.0848205,-2.77555756e-17 25.6901646,0.871481481 C32.1115407,4.60640212 38.4094289,8.2168254 44.7073171,11.951746 C45.3247571,12.3252381 45.9421971,12.6987302 46.4361491,13.1967196 C46.9301011,13.5702116 46.9301011,13.9437037 46.5596371,14.4416931 C46.3126611,14.6906878 45.9421971,15.0641799 45.5717331,15.1886772 C42.731509,16.8071429 39.7677969,18.4256085 36.9275729,20.0440741 C35.6926928,20.7910582 34.4578128,20.7910582 33.2229328,20.0440741 C30.5061967,18.5501058 27.7894606,17.1806349 25.1962126,15.6866667 C23.9613325,15.0641799 22.7264525,15.0641799 21.6150605,15.6866667 C15.9346123,19.0480952 10.2541642,22.2850265 4.69720405,25.646455 C4.45022804,25.8954497 4.32674004,26.0199471 4.20325203,26.1444444 L4.20325203,26.1444444 Z" id="XMLID_30_" sketch:type="MSShapeGroup"></path>
            </g>
        </g>
    </g>
</svg>