<?xml version="1.0" encoding="UTF-8" standalone="no"?>
<svg width="80px" height="32px" viewBox="0 0 80 32" version="1.1" xmlns="http://www.w3.org/2000/svg" xmlns:xlink="http://www.w3.org/1999/xlink" xmlns:sketch="http://www.bohemiancoding.com/sketch/ns">
    <!-- Generator: Sketch 3.4.2 (15855) - http://www.bohemiancoding.com/sketch -->
    <title>Artboard</title>
    <desc>Created with Sketch.</desc>
    <defs></defs>
    <g id="Page-1" stroke="none" stroke-width="1" fill="none" fill-rule="evenodd" sketch:type="MSPage">
        <g id="Artboard" sketch:type="MSArtboardGroup" fill="#FFFFFF">
            <path d="M10.8,13.1 L12,13.1 C11.9,11 11.8,8.9 11.7,7 C11.6,5 11.4,3.2 11.2,1.4 L10.2,1.4 C9.9,2 9.5,2.6 9.1,3.4 C8.7,4.1 8.3,4.9 8,5.7 C7.6,6.5 7.3,7.3 6.9,8 C6.5,8.8 6.2,9.5 6,10.1 C5.7,9.5 5.4,8.8 5.1,8 C4.7,7.2 4.4,6.4 4,5.7 C3.6,4.9 3.2,4.1 2.9,3.4 C2.5,2.7 2.2,2 1.8,1.4 L0.8,1.4 C0.6,3.2 0.4,5 0.3,7 C0.2,9 0.1,11 -7.10542736e-15,13.1 L1.1,13.1 C1.2,11.3 1.2,9.6 1.3,7.9 C1.4,6.2 1.5,4.7 1.6,3.3 C1.7,3.5 1.8,3.7 2,4.1 C2.2,4.5 2.4,4.9 2.7,5.4 C3,5.9 3.2,6.4 3.5,7 C3.8,7.6 4,8.1 4.3,8.7 C4.6,9.3 4.8,9.7 5,10.2 C5.2,10.7 5.4,11 5.5,11.3 L6.5,11.3 C6.6,11 6.8,10.6 7,10.2 C7.2,9.7 7.4,9.2 7.7,8.7 C8,8.1 8.2,7.6 8.5,7 C8.8,6.4 9,5.9 9.3,5.4 C9.6,4.9 9.8,4.4 10,4.1 C10.2,3.7 10.3,3.4 10.4,3.3 C10.5,4.7 10.7,6.2 10.7,7.9 C10.6,9.5 10.7,11.2 10.8,13.1 L10.8,13.1 Z M19.5,11.8 C19.3,11.9 19.1,12 18.7,12.1 C18.4,12.2 17.9,12.3 17.3,12.3 C16.2,12.3 15.4,12 14.9,11.4 C14.4,10.8 14.1,10 14.1,8.9 L20.2,8.9 L20.2,8.6 L20.2,8.3 C20.2,6.9 19.9,5.8 19.2,5.1 C18.6,4.4 17.7,4.1 16.7,4.1 C16.2,4.1 15.7,4.2 15.3,4.4 C14.8,4.6 14.4,4.9 14.1,5.2 C13.7,5.6 13.5,6.1 13.2,6.6 C13,7.2 12.9,7.8 12.9,8.6 C12.9,9.3 13,9.9 13.1,10.4 C13.3,11 13.5,11.4 13.9,11.8 C14.2,12.2 14.7,12.5 15.2,12.7 C15.7,12.9 16.4,13 17.2,13 C17.8,13 18.3,12.9 18.7,12.8 C19.1,12.7 19.4,12.6 19.6,12.5 L19.5,11.8 L19.5,11.8 Z M14.4,6.9 C14.5,6.6 14.7,6.2 14.9,6 C15.1,5.7 15.4,5.5 15.7,5.4 C16,5.2 16.4,5.2 16.8,5.2 C17.5,5.2 18.1,5.5 18.5,6 C18.9,6.5 19.1,7.2 19.1,8.1 L14.1,8.1 C14.2,7.6 14.3,7.2 14.4,6.9 L14.4,6.9 Z M22.5,12 C22.9,12.4 23.3,12.7 23.8,12.9 C24.3,13.1 24.9,13.2 25.5,13.2 C26.3,13.2 26.9,13.2 27.4,13.1 C27.9,13 28.3,12.9 28.7,12.8 L28.7,1.77635684e-15 L27.6,0.2 L27.6,4.9 C27.4,4.7 27.1,4.6 26.7,4.4 C26.3,4.2 25.8,4.2 25.2,4.2 C24.6,4.2 24,4.3 23.5,4.5 C23,4.7 22.6,5 22.3,5.4 C22,5.8 21.7,6.3 21.5,6.8 C21.3,7.4 21.2,8 21.2,8.6 C21.2,9.3 21.3,9.9 21.5,10.5 C21.8,11.2 22.1,11.6 22.5,12 L22.5,12 Z M22.6,7.3 C22.7,6.9 22.9,6.5 23.1,6.2 C23.3,5.9 23.6,5.6 24,5.4 C24.4,5.2 24.8,5.1 25.4,5.1 C25.7,5.1 25.9,5.1 26.1,5.2 C26.3,5.2 26.6,5.3 26.8,5.4 C27,5.5 27.2,5.6 27.3,5.7 C27.4,5.8 27.6,5.9 27.7,6 L27.7,12.1 C27.5,12.2 27.3,12.2 27,12.3 C26.7,12.3 26.2,12.4 25.7,12.4 C24.8,12.4 24,12.1 23.4,11.5 C22.8,10.9 22.5,10 22.5,8.9 C22.4,8.2 22.5,7.8 22.6,7.3 L22.6,7.3 Z M31,13.1 L32.1,13.1 L32.1,4.3 L31,4.3 L31,13.1 L31,13.1 Z M31.6,2.5 C31.8,2.5 32,2.4 32.2,2.3 C32.3,2.2 32.4,2 32.4,1.7 C32.4,1.4 32.3,1.2 32.2,1.1 C32,1 31.9,0.9 31.6,0.9 C31.3,0.9 31.2,1 31,1.1 C30.8,1.2 30.8,1.5 30.8,1.7 C30.8,2 30.9,2.2 31,2.3 C31.1,2.5 31.3,2.5 31.6,2.5 L31.6,2.5 Z M39.3,13 C39.5,13 39.7,12.9 39.8,12.9 L39.8,7.4 C39.8,6.9 39.7,6.5 39.6,6.1 C39.5,5.7 39.3,5.4 39.1,5.1 C38.8,4.8 38.5,4.6 38.1,4.4 C37.7,4.2 37.2,4.2 36.6,4.2 C36,4.2 35.6,4.2 35.2,4.3 C34.8,4.3 34.5,4.4 34.4,4.5 L34.5,5.5 C34.6,5.4 34.9,5.4 35.2,5.3 C35.5,5.2 36,5.2 36.6,5.2 C37,5.2 37.4,5.3 37.7,5.4 C38,5.5 38.2,5.7 38.3,6 C38.4,6.2 38.6,6.5 38.6,6.8 C38.6,7.1 38.7,7.4 38.7,7.7 L38.7,8.2 C38.7,8.2 38.6,8.2 38.5,8.1 C38.4,8.1 38.2,8 38.1,8 C37.9,8 37.8,8 37.6,7.9 L37.1,7.9 C36.6,7.9 36.1,7.9 35.6,8 C35.2,8.1 34.8,8.3 34.4,8.5 C34.1,8.7 33.8,9 33.6,9.3 C33.4,9.6 33.3,10 33.3,10.5 C33.3,11 33.4,11.4 33.5,11.8 C33.7,12.1 33.9,12.4 34.2,12.6 C34.5,12.8 34.8,13 35.2,13.1 C35.6,13.2 36,13.2 36.5,13.2 L37.6,13.2 C37.9,13.2 38.3,13.1 38.5,13.1 C38.9,13 39.1,13 39.3,13 L39.3,13 Z M36.8,12.3 C36.5,12.3 36.1,12.3 35.9,12.2 C35.6,12.1 35.4,12 35.2,11.9 C35,11.8 34.9,11.6 34.7,11.4 C34.6,11.2 34.5,10.9 34.5,10.6 C34.5,10.2 34.6,9.9 34.7,9.7 C34.8,9.5 35.1,9.3 35.3,9.2 C35.6,9.1 35.8,9 36.1,8.9 C36.4,8.9 36.7,8.8 36.9,8.8 C37.4,8.8 37.7,8.8 38,8.9 C38.3,9 38.5,9 38.6,9.1 L38.6,12.2 C38.4,12.2 38.1,12.3 37.8,12.3 C37.6,12.3 37.2,12.3 36.8,12.3 L36.8,12.3 Z M49.2,13 C49.5,12.9 49.7,12.9 49.9,12.8 C50.1,12.7 50.2,12.7 50.3,12.6 L50,11.6 C49.7,11.7 49.4,11.9 48.9,12 C48.4,12.1 47.8,12.2 47,12.2 C46.3,12.2 45.7,12.1 45.2,11.8 C44.7,11.5 44.2,11.2 43.9,10.8 C43.5,10.4 43.3,9.8 43.1,9.2 C42.9,8.6 42.8,7.9 42.8,7.1 C42.8,6.3 42.9,5.7 43.1,5 C43.3,4.4 43.6,3.9 43.9,3.4 C44.3,3 44.7,2.6 45.3,2.4 C45.9,2.1 46.5,2 47.2,2 C47.8,2 48.4,2.1 48.8,2.2 C49.2,2.4 49.6,2.5 49.9,2.7 L50.3,1.7 C50.2,1.6 50,1.6 49.9,1.5 C49.7,1.4 49.5,1.3 49.2,1.2 C48.9,1.1 48.6,1.1 48.3,1 C47.9,0.9 47.5,0.9 47.1,0.9 C46.4,0.9 45.7,1 45.1,1.3 C44.4,1.6 43.9,2 43.4,2.5 C42.9,3 42.5,3.7 42.2,4.4 C41.9,5.2 41.8,6 41.8,7 C41.8,8 41.9,8.8 42.2,9.6 C42.5,10.4 42.9,11 43.3,11.5 C43.8,12 44.3,12.4 45,12.7 C45.6,13 46.3,13.1 47.1,13.1 C47.6,13.1 48,13.1 48.4,13 C48.6,13.2 49,13.1 49.2,13 L49.2,13 Z M56.8,13.1 C57.4,13 57.8,12.9 58.1,12.8 L58.1,4.3 L57,4.3 L57,12 C56.9,12 56.7,12.1 56.3,12.1 C55.9,12.2 55.5,12.2 55,12.2 C54.5,12.2 54.2,12.1 53.8,12 C53.5,11.9 53.2,11.7 53,11.4 C52.8,11.1 52.7,10.8 52.6,10.4 C52.5,10 52.5,9.4 52.5,8.8 L52.5,4.3 L51.4,4.3 L51.4,9.2 C51.4,9.8 51.5,10.3 51.6,10.8 C51.7,11.3 51.9,11.7 52.2,12.1 C52.5,12.4 52.8,12.7 53.3,12.9 C53.7,13.1 54.3,13.2 54.9,13.2 C55.6,13.2 56.3,13.2 56.8,13.1 L56.8,13.1 Z M66.5,5.4 C66.2,5 65.8,4.7 65.3,4.5 C64.8,4.3 64.3,4.2 63.6,4.2 C63,4.2 62.5,4.3 62.1,4.4 C61.7,4.5 61.4,4.7 61.2,4.9 L61.2,1.77635684e-15 L60.1,0.2 L60.1,12.8 C60.4,12.9 60.8,13 61.4,13.1 C61.9,13.2 62.5,13.2 63.3,13.2 C63.9,13.2 64.5,13.1 65,12.9 C65.5,12.7 66,12.4 66.3,12 C66.7,11.6 67,11.1 67.2,10.6 C67.4,10 67.5,9.4 67.5,8.7 C67.5,8 67.4,7.4 67.2,6.9 C67.1,6.3 66.8,5.8 66.5,5.4 L66.5,5.4 Z M65.5,11.3 C64.9,11.9 64.2,12.2 63.2,12.2 C62.7,12.2 62.2,12.2 61.9,12.1 C61.6,12.1 61.3,12 61.2,11.9 L61.2,5.8 C61.3,5.7 61.4,5.6 61.6,5.5 C61.7,5.4 61.9,5.3 62.1,5.2 C62.3,5.1 62.5,5.1 62.8,5 C63,5 63.3,4.9 63.5,4.9 C64,4.9 64.5,5 64.9,5.2 C65.3,5.4 65.6,5.6 65.8,6 C66,6.4 66.2,6.7 66.3,7.1 C66.4,7.5 66.4,8 66.4,8.5 C66.4,9.9 66.1,10.7 65.5,11.3 L65.5,11.3 Z M75,5.2 C74.4,4.5 73.5,4.2 72.5,4.2 C72,4.2 71.5,4.3 71.1,4.5 C70.6,4.7 70.2,5 69.9,5.3 C69.5,5.7 69.3,6.2 69,6.7 C68.8,7.3 68.7,7.9 68.7,8.7 C68.7,9.4 68.8,10 68.9,10.5 C69.1,11.1 69.3,11.5 69.7,11.9 C70,12.3 70.5,12.6 71,12.8 C71.5,13 72.2,13.1 73,13.1 C73.6,13.1 74.1,13 74.5,12.9 C74.9,12.8 75.2,12.7 75.4,12.6 L75.2,11.7 C75,11.8 74.8,11.9 74.4,12 C74.1,12.1 73.6,12.2 73,12.2 C71.9,12.2 71.1,11.9 70.6,11.3 C70.1,10.7 69.8,9.9 69.8,8.8 L75.9,8.8 L75.9,8.5 L75.9,8.2 C75.9,6.9 75.6,5.9 75,5.2 L75,5.2 Z M69.8,8 C69.8,7.6 69.9,7.3 70,6.9 C70.1,6.6 70.3,6.2 70.5,6 C70.7,5.7 71,5.5 71.3,5.4 C71.6,5.2 72,5.2 72.4,5.2 C73.1,5.2 73.7,5.5 74.1,6 C74.5,6.5 74.7,7.2 74.7,8.1 C74.8,8 69.8,8 69.8,8 L69.8,8 Z M7.9,28.6 C7.6,28 7.1,27.3 6.6,26.4 C6,25.6 5.5,24.7 4.8,23.9 C4.2,23 3.5,22.2 2.9,21.3 C2.2,20.5 1.6,19.7 1.1,19.1 L0.2,19.1 L0.2,30.8 L1.3,30.8 L1.3,20.9 C1.6,21.3 2,21.7 2.4,22.3 C2.8,22.8 3.2,23.4 3.7,24 C4.1,24.6 4.6,25.2 5,25.9 C5.4,26.5 5.8,27.2 6.3,27.7 C6.7,28.3 7.1,28.9 7.4,29.4 C7.7,29.9 8,30.4 8.2,30.8 L9.2,30.8 L9.2,19.1 L8.1,19.1 L8.1,28.6 L7.9,28.6 Z M14.2,21.9 C13.7,21.9 13.2,22 12.8,22.2 C12.3,22.4 11.9,22.7 11.6,23 C11.2,23.4 11,23.9 10.7,24.4 C10.5,25 10.4,25.6 10.4,26.4 C10.4,27.1 10.5,27.7 10.6,28.2 C10.8,28.8 11,29.2 11.4,29.6 C11.8,30 12.2,30.3 12.7,30.5 C13.2,30.7 13.9,30.8 14.7,30.8 C15.3,30.8 15.8,30.7 16.2,30.6 C16.6,30.5 16.9,30.4 17.1,30.3 L16.9,29.4 C16.7,29.5 16.5,29.6 16.1,29.7 C15.8,29.8 15.3,29.9 14.7,29.9 C13.6,29.9 12.8,29.6 12.3,29 C11.8,28.4 11.5,27.6 11.5,26.5 L17.6,26.5 L17.6,26.2 L17.6,25.9 C17.6,24.5 17.3,23.4 16.6,22.7 C16.1,22.2 15.2,21.9 14.2,21.9 L14.2,21.9 Z M11.6,25.7 C11.6,25.3 11.7,25 11.8,24.6 C11.9,24.3 12.1,23.9 12.3,23.7 C12.5,23.4 12.8,23.2 13.1,23.1 C13.4,22.9 13.8,22.9 14.2,22.9 C14.9,22.9 15.5,23.2 15.9,23.7 C16.3,24.2 16.5,24.9 16.5,25.8 C16.5,25.7 11.6,25.7 11.6,25.7 L11.6,25.7 Z M23.2,29.8 C22.9,29.9 22.5,30 22.1,30 C21.8,30 21.6,30 21.4,29.9 L20.8,29.6 C20.6,29.4 20.5,29.2 20.4,28.9 C20.3,28.6 20.3,28.2 20.3,27.7 L20.3,23.1 L23.8,23.1 L23.8,22.2 L20.3,22.2 L20.3,19.4 L19.2,19.6 L19.2,27.6 C19.2,28.2 19.2,28.7 19.3,29.1 C19.4,29.5 19.5,29.9 19.8,30.2 C20,30.5 20.3,30.7 20.7,30.8 C21.1,30.9 21.5,31 22.1,31 C22.6,31 23,30.9 23.4,30.8 C23.8,30.7 24.1,30.6 24.2,30.5 L23.9,29.6 C23.7,29.6 23.5,29.7 23.2,29.8 L23.2,29.8 Z M35.7,24 C35.5,24.7 35.3,25.4 35.1,26.1 C34.9,26.8 34.7,27.4 34.5,28 C34.3,28.6 34.1,29.1 33.9,29.6 C33.7,29 33.5,28.4 33.2,27.8 C33,27.2 32.8,26.5 32.6,25.8 C32.4,25.1 32.2,24.5 32.1,23.9 C31.9,23.3 31.8,22.7 31.7,22.1 L30.8,22.1 C30.7,22.7 30.5,23.3 30.4,23.9 C30.2,24.5 30.1,25.2 29.9,25.8 C29.7,26.4 29.5,27.1 29.3,27.7 C29.1,28.3 28.9,28.9 28.7,29.5 C28.5,29.1 28.3,28.6 28.1,27.9 C27.9,27.3 27.7,26.6 27.4,26 C27.2,25.3 27,24.6 26.8,23.9 C26.6,23.2 26.5,22.6 26.3,22 L25.1,22 C25.5,23.7 25.9,25.3 26.4,26.7 C26.9,28.1 27.4,29.5 28,30.7 L29.1,30.7 C29.3,30.3 29.4,29.9 29.6,29.4 C29.8,28.9 30,28.4 30.2,27.8 C30.4,27.2 30.6,26.7 30.8,26 C31,25.4 31.2,24.8 31.3,24.1 C31.5,24.7 31.6,25.4 31.8,26 C32,26.6 32.2,27.2 32.4,27.8 C32.6,28.4 32.8,28.9 33,29.4 C33.2,29.9 33.4,30.3 33.5,30.7 L34.5,30.7 C35.1,29.4 35.6,28.1 36.1,26.7 C36.6,25.3 37,23.7 37.4,22 L36.3,22 C36,22.7 35.9,23.3 35.7,24 L35.7,24 Z M44.9,23.1 C44.5,22.7 44.1,22.4 43.6,22.2 C43.1,22 42.6,21.9 42,21.9 C41.4,21.9 40.9,22 40.4,22.2 C39.9,22.4 39.5,22.7 39.1,23.1 C38.7,23.5 38.5,24 38.3,24.5 C38.1,25.1 38,25.7 38,26.4 C38,27.1 38.1,27.7 38.3,28.3 C38.5,28.9 38.8,29.3 39.1,29.7 C39.5,30.1 39.9,30.4 40.4,30.6 C40.9,30.8 41.4,30.9 42,30.9 C42.6,30.9 43.1,30.8 43.6,30.6 C44.1,30.4 44.5,30.1 44.9,29.7 C45.3,29.3 45.5,28.8 45.7,28.3 C45.9,27.7 46,27.1 46,26.4 C46,25.7 45.9,25.1 45.7,24.5 C45.5,24 45.2,23.5 44.9,23.1 L44.9,23.1 Z M44.1,29 C43.6,29.6 42.9,30 42,30 C41.1,30 40.4,29.7 39.9,29 C39.4,28.4 39.2,27.5 39.2,26.4 C39.2,25.3 39.5,24.4 40,23.8 C40.5,23.2 41.2,22.8 42.1,22.8 C43,22.8 43.7,23.1 44.2,23.8 C44.7,24.4 45,25.3 45,26.4 C44.8,27.5 44.6,28.4 44.1,29 L44.1,29 Z M50.5,21.9 C49.8,21.9 49.2,22 48.7,22.1 C48.2,22.2 47.8,22.4 47.5,22.5 L47.5,30.8 L48.6,30.8 L48.6,23.2 C48.7,23.2 48.9,23.1 49.2,23 C49.5,22.9 49.9,22.9 50.3,22.9 C50.7,22.9 51.1,22.9 51.4,23 C51.7,23 51.9,23.1 52,23.1 L52.2,22.2 C52.1,22.1 51.9,22.1 51.5,22 C51.2,21.9 50.8,21.9 50.5,21.9 L50.5,21.9 Z M57.8,28.2 C57.4,27.8 57,27.4 56.6,27 C56.2,26.6 55.8,26.3 55.4,26 C55.7,25.7 56.1,25.4 56.4,25 C56.8,24.7 57.1,24.3 57.5,23.9 C57.9,23.5 58.2,23.2 58.5,22.9 C58.8,22.6 59.1,22.3 59.4,22 L58.1,22 C57.9,22.3 57.6,22.5 57.3,22.9 C57,23.2 56.6,23.6 56.3,23.9 C55.9,24.3 55.6,24.6 55.2,24.9 C54.9,25.2 54.6,25.5 54.3,25.7 L54.3,17.6 L53.2,17.8 L53.2,30.7 L54.3,30.7 L54.3,26.5 C54.6,26.6 54.9,26.9 55.3,27.2 C55.7,27.5 56.1,27.9 56.4,28.2 C56.8,28.6 57.1,29 57.5,29.4 C57.8,29.8 58.2,30.3 58.4,30.7 L59.7,30.7 C59.5,30.3 59.2,29.9 58.8,29.4 C58.6,29.1 58.2,28.6 57.8,28.2 L57.8,28.2 Z" id="XMLID_247_" sketch:type="MSShapeGroup"></path>
        </g>
    </g>
</svg>