<?xml version="1.0" encoding="utf-8"?>
<!-- Generator: Adobe Illustrator 18.0.0, SVG Export Plug-In . SVG Version: 6.00 Build 0)  -->
<!DOCTYPE svg PUBLIC "-//W3C//DTD SVG 1.0//EN" "http://www.w3.org/TR/2001/REC-SVG-20010904/DTD/svg10.dtd">
<svg version="1.0" xmlns="http://www.w3.org/2000/svg" xmlns:xlink="http://www.w3.org/1999/xlink" x="0px" y="0px"
	 viewBox="0 0 20 16" enable-background="new 0 0 20 16" xml:space="preserve">
<g id="Layer_2" display="none">
	<path display="inline" fill="#D62F27" d="M3.247,20.163c0.192,0.118,0.337,0.217,0.49,0.301c4.517,2.497,9.038,4.987,13.552,7.491
		c1.084,0.601,2.128,0.599,3.221,0.011c5.426-2.916,10.862-5.816,16.294-8.724c0.394-0.211,0.782-0.434,1.256-0.697
		c0.023,0.229,0.051,0.375,0.05,0.521c-0.013,3.15-0.024,6.301-0.047,9.451c-0.011,1.578-0.765,2.733-2.219,3.481
		c-4.933,2.538-9.872,5.067-14.791,7.629c-1.55,0.807-3.007,0.77-4.52-0.079c-4.754-2.665-9.525-5.302-14.29-7.949
		c-1.369-0.761-2.083-1.903-2.081-3.407c0.01-5.426,0.03-10.852,0.081-16.277c0.013-1.337,0.683-2.407,1.893-3.074
		c4.949-2.727,9.911-5.433,14.88-8.126c1.255-0.68,2.577-0.681,3.831,0.001c5.203,2.832,10.393,5.685,15.583,8.539
		c0.491,0.27,0.958,0.583,1.409,0.911c0.389,0.283,0.406,0.606,0.056,0.935c-0.245,0.23-0.527,0.438-0.826,0.6
		c-2.34,1.271-4.689,2.527-7.033,3.791c-1.01,0.545-2.014,0.544-3.037,0.026c-2.2-1.115-4.406-2.217-6.607-3.331
		c-0.989-0.501-1.966-0.489-2.929,0.044c-4.627,2.561-9.251,5.125-13.875,7.69C3.483,19.981,3.391,20.06,3.247,20.163z"/>
</g>
<g id="Layer_4">
	<g>
		<g>
			<path fill-rule="evenodd" clip-rule="evenodd" fill="#7C7C7C" d="M0,0v2h20V0H0z M0,9h20V7H0V9z M0,16h20v-2H0V16z"/>
		</g>
	</g>
</g>
<g id="Layer_3" display="none">
	<path display="inline" fill-rule="evenodd" clip-rule="evenodd" fill="#D62F27" d="M-23.194,11.212l16.357,16.357l-1.636,1.636
		L-24.83,12.848L-23.194,11.212z"/>
	<path display="inline" fill-rule="evenodd" clip-rule="evenodd" fill="#D62F27" d="M-24.83,27.569l16.357-16.357l1.636,1.636
		l-16.357,16.357L-24.83,27.569z"/>
</g>
</svg>
